<?xml version="1.0" encoding="us-ascii" standalone="no"?><svg xmlns="http://www.w3.org/2000/svg" xmlns:xlink="http://www.w3.org/1999/xlink" contentStyleType="text/css" height="590px" preserveAspectRatio="none" style="width:681px;height:590px;background:#FFFFFF;" version="1.1" viewBox="0 0 681 590" width="681px" zoomAndPan="magnify"><defs/><g><!--entity Manual--><g id="elem_Manual"><rect fill="#F1F1F1" height="49.0679" rx="2.5" ry="2.5" style="stroke:#181818;stroke-width:0.5;" width="91" x="40" y="271.14"/><rect fill="#F1F1F1" height="10" style="stroke:#181818;stroke-width:0.5;" width="15" x="111" y="276.14"/><rect fill="#F1F1F1" height="2" style="stroke:#181818;stroke-width:0.5;" width="4" x="109" y="278.14"/><rect fill="#F1F1F1" height="2" style="stroke:#181818;stroke-width:0.5;" width="4" x="109" y="282.14"/><text fill="#000000" font-family="sans-serif" font-size="14" lengthAdjust="spacing" textLength="51" x="55" y="306.1059">Manual</text></g><!--entity Horizontal Sweep--><g id="elem_Horizontal Sweep"><rect fill="#F1F1F1" height="49.0679" rx="2.5" ry="2.5" style="stroke:#181818;stroke-width:0.5;" width="157" x="7" y="403.2"/><rect fill="#F1F1F1" height="10" style="stroke:#181818;stroke-width:0.5;" width="15" x="144" y="408.2"/><rect fill="#F1F1F1" height="2" style="stroke:#181818;stroke-width:0.5;" width="4" x="142" y="410.2"/><rect fill="#F1F1F1" height="2" style="stroke:#181818;stroke-width:0.5;" width="4" x="142" y="414.2"/><text fill="#000000" font-family="sans-serif" font-size="14" lengthAdjust="spacing" textLength="117" x="22" y="438.1659">Horizontal Sweep</text></g><!--entity Horizontal_Max--><g id="elem_Horizontal_Max"><rect fill="#F1F1F1" height="49.0679" rx="2.5" ry="2.5" style="stroke:#181818;stroke-width:0.5;" width="143" x="14" y="535.27"/><rect fill="#F1F1F1" height="10" style="stroke:#181818;stroke-width:0.5;" width="15" x="137" y="540.27"/><rect fill="#F1F1F1" height="2" style="stroke:#181818;stroke-width:0.5;" width="4" x="135" y="542.27"/><rect fill="#F1F1F1" height="2" style="stroke:#181818;stroke-width:0.5;" width="4" x="135" y="546.27"/><text fill="#000000" font-family="sans-serif" font-size="14" lengthAdjust="spacing" textLength="103" x="29" y="570.2359">Horizontal_Max</text></g><!--entity Horizontal Max--><g id="elem_Horizontal Max"><rect fill="#F1F1F1" height="49.0679" rx="2.5" ry="2.5" style="stroke:#181818;stroke-width:0.5;" width="141" x="356" y="7"/><rect fill="#F1F1F1" height="10" style="stroke:#181818;stroke-width:0.5;" width="15" x="477" y="12"/><rect fill="#F1F1F1" height="2" style="stroke:#181818;stroke-width:0.5;" width="4" x="475" y="14"/><rect fill="#F1F1F1" height="2" style="stroke:#181818;stroke-width:0.5;" width="4" x="475" y="18"/><text fill="#000000" font-family="sans-serif" font-size="14" lengthAdjust="spacing" textLength="101" x="371" y="41.9659">Horizontal Max</text></g><!--entity  Vertical Sweep--><g id="elem_ Vertical Sweep"><rect fill="#F1F1F1" height="49.0679" rx="2.5" ry="2.5" style="stroke:#181818;stroke-width:0.5;" width="142" x="355.5" y="139.07"/><rect fill="#F1F1F1" height="10" style="stroke:#181818;stroke-width:0.5;" width="15" x="477.5" y="144.07"/><rect fill="#F1F1F1" height="2" style="stroke:#181818;stroke-width:0.5;" width="4" x="475.5" y="146.07"/><rect fill="#F1F1F1" height="2" style="stroke:#181818;stroke-width:0.5;" width="4" x="475.5" y="150.07"/><text fill="#000000" font-family="sans-serif" font-size="14" lengthAdjust="spacing" textLength="98" x="374.5" y="174.0359">Vertical Sweep</text></g><!--entity Vertical Sweep--><g id="elem_Vertical Sweep"><rect fill="#F1F1F1" height="49.0679" rx="2.5" ry="2.5" style="stroke:#181818;stroke-width:0.5;" width="138" x="117.5" y="7"/><rect fill="#F1F1F1" height="10" style="stroke:#181818;stroke-width:0.5;" width="15" x="235.5" y="12"/><rect fill="#F1F1F1" height="2" style="stroke:#181818;stroke-width:0.5;" width="4" x="233.5" y="14"/><rect fill="#F1F1F1" height="2" style="stroke:#181818;stroke-width:0.5;" width="4" x="233.5" y="18"/><text fill="#000000" font-family="sans-serif" font-size="14" lengthAdjust="spacing" textLength="98" x="132.5" y="41.9659">Vertical Sweep</text></g><!--entity Vertical Max--><g id="elem_Vertical Max"><rect fill="#F1F1F1" height="49.0679" rx="2.5" ry="2.5" style="stroke:#181818;stroke-width:0.5;" width="122" x="24.5" y="139.07"/><rect fill="#F1F1F1" height="10" style="stroke:#181818;stroke-width:0.5;" width="15" x="126.5" y="144.07"/><rect fill="#F1F1F1" height="2" style="stroke:#181818;stroke-width:0.5;" width="4" x="124.5" y="146.07"/><rect fill="#F1F1F1" height="2" style="stroke:#181818;stroke-width:0.5;" width="4" x="124.5" y="150.07"/><text fill="#000000" font-family="sans-serif" font-size="14" lengthAdjust="spacing" textLength="82" x="39.5" y="174.0359">Vertical Max</text></g><!--link Manual to Horizontal Sweep--><g id="link_Manual_Horizontal Sweep"><path d="M85.5,320.53 C85.5,342.07 85.5,373.85 85.5,397.04 " fill="none" id="Manual-to-Horizontal Sweep" style="stroke:#181818;stroke-width:1.0;"/><polygon fill="#181818" points="85.5,402.03,89.5,393.03,85.5,397.03,81.5,393.03,85.5,402.03" style="stroke:#181818;stroke-width:1.0;"/><text fill="#000000" font-family="sans-serif" font-size="16" lengthAdjust="spacing" textLength="48" x="86.5" y="368.304">BTN_C</text></g><!--link Horizontal Sweep to Horizontal Sweep--><g id="link_Horizontal Sweep_Horizontal Sweep"><path d="M164.27,415.52 C184.13,416.34 199,420.42 199,427.74 C199,434.31 186.99,438.27 170.16,439.61 " fill="none" id="Horizontal Sweep-to-Horizontal Sweep" style="stroke:#181818;stroke-width:1.0;"/><polygon fill="#181818" points="165.27,439.96,174.4934,443.4138,170.261,439.6605,174.0143,435.4282,165.27,439.96" style="stroke:#181818;stroke-width:1.0;"/><text fill="#000000" font-family="sans-serif" font-size="16" lengthAdjust="spacing" textLength="126" x="205" y="434.344">CNT_L / SERVO_L</text></g><!--link Horizontal Sweep to Horizontal_Max--><g id="link_Horizontal Sweep_Horizontal_Max"><path d="M85.5,452.59 C85.5,474.14 85.5,505.92 85.5,529.11 " fill="none" id="Horizontal Sweep-to-Horizontal_Max" style="stroke:#181818;stroke-width:1.0;"/><polygon fill="#181818" points="85.5,534.1,89.5,525.1,85.5,529.1,81.5,525.1,85.5,534.1" style="stroke:#181818;stroke-width:1.0;"/><text fill="#000000" font-family="sans-serif" font-size="16" lengthAdjust="spacing" textLength="46" x="86.5" y="500.374">CNT_L</text></g><!--link Horizontal Max to Horizontal Max--><g id="link_Horizontal Max_Horizontal Max"><path d="M497,19.21 C516.8,19.75 532,23.86 532,31.53 C532,38.43 519.73,42.44 502.88,43.58 " fill="none" id="Horizontal Max-to-Horizontal Max" style="stroke:#181818;stroke-width:1.0;"/><polygon fill="#181818" points="498,43.85,507.1733,47.4348,502.9948,43.6217,506.8079,39.4432,498,43.85" style="stroke:#181818;stroke-width:1.0;"/><text fill="#000000" font-family="sans-serif" font-size="16" lengthAdjust="spacing" textLength="130" x="538" y="38.134">CNT_R / SERVO_R</text></g><!--link Horizontal Max to  Vertical Sweep--><g id="link_Horizontal Max_ Vertical Sweep"><path d="M426.5,56.39 C426.5,77.93 426.5,109.72 426.5,132.9 " fill="none" id="Horizontal Max-to- Vertical Sweep" style="stroke:#181818;stroke-width:1.0;"/><polygon fill="#181818" points="426.5,137.9,430.5,128.9,426.5,132.9,422.5,128.9,426.5,137.9" style="stroke:#181818;stroke-width:1.0;"/><text fill="#000000" font-family="sans-serif" font-size="16" lengthAdjust="spacing" textLength="60" x="427.5" y="104.174">CNT_RU</text></g><!--link Vertical Sweep to  Vertical Sweep--><g id="link_Vertical Sweep_ Vertical Sweep"><path d="M211.77,56.39 C230.25,72.87 256.52,94.38 282.5,109.07 C303.37,120.87 327.34,130.98 349.65,139.13 " fill="none" id="Vertical Sweep-to- Vertical Sweep" style="stroke:#181818;stroke-width:1.0;"/><polygon fill="#181818" points="354.29,141.17,347.1805,134.3542,349.5865,139.4739,344.4668,141.8798,354.29,141.17" style="stroke:#181818;stroke-width:1.0;"/><text fill="#000000" font-family="sans-serif" font-size="16" lengthAdjust="spacing" textLength="134" x="283.5" y="104.174">CNT_D / SERVO_D</text></g><!--link Vertical Sweep to Vertical Max--><g id="link_Vertical Sweep_Vertical Max"><path d="M163.29,56.4 C154.87,65.44 145.47,75.99 137.5,86.07 C125.42,101.35 113.11,119.33 103.5,134.02 " fill="none" id="Vertical Sweep-to-Vertical Max" style="stroke:#181818;stroke-width:1.0;"/><polygon fill="#181818" points="100.36,137.87,108.6045,132.4822,103.0739,133.6706,101.8855,128.14,100.36,137.87" style="stroke:#181818;stroke-width:1.0;"/><text fill="#000000" font-family="sans-serif" font-size="16" lengthAdjust="spacing" textLength="50" x="138.5" y="104.174">CNT_D</text></g><!--link Vertical Max to Vertical Max--><g id="link_Vertical Max_Vertical Max"><path d="M146.9,151.23 C166.24,151.42 181.5,155.54 181.5,163.6 C181.5,170.84 169.18,174.91 152.65,175.8 " fill="none" id="Vertical Max-to-Vertical Max" style="stroke:#181818;stroke-width:1.0;"/><polygon fill="#181818" points="147.9,175.98,157.0212,179.6953,152.8975,175.8229,156.7699,171.6993,147.9,175.98" style="stroke:#181818;stroke-width:1.0;"/><text fill="#000000" font-family="sans-serif" font-size="16" lengthAdjust="spacing" textLength="144" x="187.5" y="170.204">CNT_RU / SERVO_U</text></g><!--link Vertical Max to Manual--><g id="link_Vertical Max_Manual"><path d="M85.5,188.46 C85.5,210 85.5,241.79 85.5,264.97 " fill="none" id="Vertical Max-to-Manual" style="stroke:#181818;stroke-width:1.0;"/><polygon fill="#181818" points="85.5,269.96,89.5,260.96,85.5,264.96,81.5,260.96,85.5,269.96" style="stroke:#181818;stroke-width:1.0;"/><text fill="#000000" font-family="sans-serif" font-size="16" lengthAdjust="spacing" textLength="60" x="86.5" y="236.244">CNT_RU</text></g><!--SRC=[ZP5FIyD04CNlyodcvgcO1X7r86YZU4Whv4yleOGb6PkbwMxPNKcf-DrDKhf9OohkRNxpthwthCvOIRXbUvpUkmvMF3S5w0uwTmuMnDU50RWgwSEWaQYQ6NEkA3DS2W2zuMB75DkYDimGVW7M9wI66QcYWcSRGLgZqovUfJ0XFn2wRZi_AIKh2wUtBVHfJIBlf3VmNLSutZzdufELf-bDAdweTQnCmufeT-9BKePdGzfJpzd-bxPX0CanOOMJoICcdGNRgrRuWC_H8ft1oEgYOxQ8KX-lCNm9bk-f3_ymDssizKpVBePHFNLWWm8ODIRsoUSDWnYIuUOFkMTpF1WrOWTxzJmOu8lA8BO9COowJbzb-_y0]--></g></svg>